/* XPM */
static char *_8edc771d99c47a084ad36bbb1062bbdNCSqztqtgRMDNLrO[] = {
/* columns rows colors chars-per-pixel */
"34 24 9 1 ",
"  c None",
". c #533846",
"X c #FC730F",
"o c gray98",
"O c #FC3800",
"+ c #D7E6CC",
"@ c #F8B733",
"# c #D32F00",
"$ c white",
/* pixels */
"            ............          ",
"            ............          ",
"        ....XXXXXX..oooo..        ",
"        ....XXXXXX..oooo..        ",
"      ..XXXXOOOO..oooooooo..      ",
"      ..XXXXOOOO..oooooooo..      ",
"    ..XXOOOOOOOO..++oooo..oo..    ",
"    ..XXOOOOOOOO..++oooo..oo..    ",
"  ..OOOOOOOOOOOO..++oooo..oo..    ",
"  ..OOOOOOOOOOOO..++oooo..oo..    ",
"  ..........OOOOOO..++oooooo..    ",
"  ..........OOOOOO..++oooooo..    ",
"..oooooooooo..OOOOOO............  ",
"..oooooooooo..OOOOOO............  ",
"..++oooooo++..OOOO..@@@@@@@@@@@@..",
"..++oooooo++..OOOO..@@@@@@@@@@@@..",
"  ..........####..@@............  ",
"  ..........####..@@............  ",
"    ..############..@@@@@@@@@@..  ",
"    ..############..@@@@@@@@@@..  ",
"      ....##########..........    ",
"      ....##########..........    ",
"          ..........              ",
"          ..........              "
};
